<svg xmlns="http://www.w3.org/2000/svg" viewBox="0 0 144.94 51.79"><defs><style>.cls-1{fill:#fff;}</style></defs><g id="Layer_2" data-name="Layer 2"><g id="Layer_1-2" data-name="Layer 1"><path class="cls-1" d="M38,23.09l30.5,28H50.57L28.41,30.14,13,41.43v9.64H0V.72H13V26.83L48.84.72H68.48Z"/><path class="cls-1" d="M95.24,24.1h31.93v27h-9.56L117,43.16c-4.74,5.18-12.3,8.63-23,8.63-18.56,0-29.93-9.21-29.93-25.89S75.46,0,96.17,0c20.14,0,30.21,7.84,31,20.36H114c-.72-3.82-4.17-9.5-17.84-9.5C79.34,10.86,77,20.14,77,26.18s2.37,15.61,19.13,15.61c12.52,0,17.55-5.47,17.84-9.28H95.24Z"/><path class="cls-1" d="M144.94,41.43v9.64h-12.3V41.43Z"/></g></g></svg>